<?xml version="1.0" encoding="UTF-8"?>
<svg id="_图层_1" data-name="图层 1" xmlns="http://www.w3.org/2000/svg" viewBox="0 0 280.89 22.51">
  <defs>
    <style>
      .cls-1 {
        fill: #000;
        stroke-width: 0px;
      }
    </style>
  </defs>
  <path class="cls-1" d="M31.32.02c.79,0,1.46.2,2.03.6.56.4.84.87.84,1.42v18.46c0,.42-.16.79-.48,1.12-.32.33-.74.57-1.25.74-.39.11-.77.16-1.14.16-.76,0-1.43-.18-2-.54L5.78,6.67v13.83c0,.57-.28,1.04-.84,1.43-.56.39-1.24.58-2.03.58s-1.47-.19-2.05-.58c-.58-.39-.86-.87-.86-1.43V2.03c0-.4.16-.76.48-1.09.32-.33.75-.57,1.3-.74C2.29.04,2.83-.01,3.39.05c.56.06,1.05.24,1.48.54l23.54,15.28V2.03c0-.55.28-1.02.84-1.42.56-.4,1.25-.6,2.07-.6Z"/>
  <path class="cls-1" d="M71.84.02c.79,0,1.47.2,2.05.6.58.4.86.87.86,1.42s-.29,1.01-.86,1.4c-.58.39-1.26.58-2.05.58h-28.41c-.79,0-1.46-.19-2.03-.58s-.84-.86-.84-1.4.28-1.02.84-1.42c.56-.4,1.24-.6,2.03-.6h28.41ZM71.84,9.28c.79,0,1.47.19,2.05.58.58.39.86.86.86,1.4s-.29,1.02-.86,1.42c-.58.4-1.26.6-2.05.6h-28.41c-.79,0-1.46-.2-2.03-.6s-.84-.87-.84-1.42.28-1.01.84-1.4c.56-.39,1.24-.58,2.03-.58h28.41ZM71.84,18.51c.79,0,1.47.19,2.05.58.58.39.86.86.86,1.4s-.29,1.04-.86,1.43c-.58.39-1.26.58-2.05.58h-28.41c-.79,0-1.46-.19-2.03-.58s-.84-.87-.84-1.43.28-1.01.84-1.4,1.24-.58,2.03-.58h28.41Z"/>
  <path class="cls-1" d="M112.45.02c.79,0,1.46.2,2.03.6.56.4.84.87.84,1.42v9.23c0,.76-.08,1.49-.25,2.21-.17.71-.42,1.4-.75,2.05-.67,1.39-1.7,2.6-3.1,3.65-1.46,1.09-3.2,1.92-5.24,2.49-2.03.57-4.28.85-6.74.85h-2.05c-2.46,0-4.7-.28-6.71-.85-2.02-.57-3.76-1.4-5.21-2.49-1.4-1.05-2.43-2.27-3.1-3.65-.7-1.32-1.05-2.74-1.05-4.25V2.03c0-.55.29-1.02.86-1.42.58-.4,1.26-.6,2.05-.6s1.47.2,2.05.6c.58.4.87.87.87,1.42v9.23c0,.88.18,1.75.55,2.62s.95,1.63,1.75,2.32c.8.68,1.86,1.24,3.16,1.67,1.3.43,2.9.65,4.78.65h2.05c1.91,0,3.52-.21,4.83-.65s2.36-.99,3.16-1.67c.8-.68,1.39-1.45,1.75-2.32s.55-1.73.55-2.62V2.03c0-.55.29-1.02.87-1.42.58-.4,1.26-.6,2.05-.6Z"/>
  <path class="cls-1" d="M164.39.18c.52.17.93.42,1.25.74.32.33.48.7.48,1.12v18.46c0,.57-.28,1.04-.84,1.43s-1.24.58-2.03.58-1.47-.19-2.05-.58c-.58-.39-.87-.87-.87-1.43V6.73l-14.43,9.61c-.52.36-1.18.54-2,.54s-1.49-.18-2-.54l-14.43-9.61v13.77c0,.57-.29,1.04-.87,1.43-.58.39-1.26.58-2.05.58s-1.46-.19-2.03-.58c-.56-.39-.84-.87-.84-1.43V2.03c0-.42.16-.79.48-1.12.32-.33.74-.57,1.25-.74.55-.17,1.1-.22,1.66-.14.56.07,1.05.26,1.48.55l17.35,11.53L161.25.58c.42-.29.92-.48,1.48-.55.56-.07,1.12-.03,1.66.14Z"/>
  <path class="cls-1" d="M210.42,19.68c.33.5.36,1.01.07,1.53s-.8.89-1.52,1.12c-.36.13-.76.19-1.18.19-.55,0-1.06-.1-1.55-.31-.49-.21-.85-.49-1.09-.85l-10.11-15.41c-.39-.59-.99-1.05-1.78-1.39-.79-.34-1.64-.5-2.55-.5s-1.8.17-2.57.5c-.77.34-1.36.8-1.75,1.39l-10.15,15.41c-.33.5-.87.85-1.62,1.04-.74.19-1.48.17-2.21-.06-.73-.23-1.23-.6-1.5-1.12-.27-.51-.24-1.02.09-1.53l10.11-15.37c.88-1.3,2.18-2.34,3.89-3.12,1.71-.78,3.62-1.17,5.71-1.17s3.96.39,5.69,1.17c1.73.78,3.02,1.82,3.87,3.12l10.15,15.37ZM190.71,11.67c.73,0,1.4.09,2.03.28s1.17.45,1.64.77.84.7,1.12,1.13c.27.43.41.9.41,1.4s-.14.97-.41,1.4c-.27.43-.65.81-1.12,1.13s-1.02.58-1.64.77-1.3.28-2.03.28-1.4-.09-2.03-.28-1.17-.45-1.64-.77c-.47-.33-.84-.7-1.12-1.13-.27-.43-.41-.9-.41-1.4s.14-.97.41-1.4c.27-.43.64-.81,1.12-1.13.47-.33,1.02-.58,1.64-.77s1.3-.28,2.03-.28Z"/>
  <path class="cls-1" d="M244.7,19.09c.58.39.87.86.87,1.4s-.29,1.04-.87,1.43-1.26.58-2.05.58h-24.54c-.79,0-1.46-.19-2.03-.58-.56-.39-.84-.87-.84-1.43V2.03c0-.55.28-1.02.84-1.42.56-.4,1.24-.6,2.03-.6s1.47.2,2.05.6c.58.4.87.87.87,1.42v16.48h21.62c.79,0,1.47.19,2.05.58Z"/>
  <path class="cls-1" d="M280.03,19.09c.58.39.87.86.87,1.4s-.29,1.04-.87,1.43-1.26.58-2.05.58h-24.54c-.79,0-1.46-.19-2.03-.58-.56-.39-.84-.87-.84-1.43V2.03c0-.55.28-1.02.84-1.42.56-.4,1.24-.6,2.03-.6s1.47.2,2.05.6c.58.4.87.87.87,1.42v16.48h21.62c.79,0,1.47.19,2.05.58Z"/>
</svg>